<svg xmlns="http://www.w3.org/2000/svg" xmlns:xlink="http://www.w3.org/1999/xlink" width="500" zoomAndPan="magnify" viewBox="0 0 375 374.999991" height="500" preserveAspectRatio="xMidYMid meet" version="1.0"><defs><clipPath id="41d181fd26"><path d="M 161.382812 38.25 L 288.308594 38.25 L 288.308594 327.75 L 161.382812 327.75 Z M 161.382812 38.25 " clip-rule="nonzero"/></clipPath><clipPath id="f0ec718ba3"><path d="M 77.625 38.25 L 143 38.25 L 143 327.75 L 77.625 327.75 Z M 77.625 38.25 " clip-rule="nonzero"/></clipPath><clipPath id="2876e81fee"><path d="M 319.238281 83 L 328.292969 83 L 328.292969 283 L 319.238281 283 Z M 319.238281 83 " clip-rule="nonzero"/></clipPath><clipPath id="08ce7e02e0"><path d="M 37.5 83 L 47 83 L 47 283 L 37.5 283 Z M 37.5 83 " clip-rule="nonzero"/></clipPath></defs><path fill="#ff2c2c" d="M 125.707031 192.027344 L 113.015625 179.335938 L 118.90625 173.441406 L 125.707031 180.242188 L 139.816406 166.132812 L 145.707031 172.027344 L 125.707031 192.027344 " fill-opacity="1" fill-rule="nonzero"/><path fill="#ffffff" d="M 240.375 130.621094 L 161.507812 130.621094 L 161.507812 122.289062 L 240.375 122.289062 L 240.375 130.621094 " fill-opacity="1" fill-rule="nonzero"/><path fill="#ffffff" d="M 283.917969 187.171875 L 161.511719 187.171875 L 161.511719 178.839844 L 283.917969 178.839844 L 283.917969 187.171875 " fill-opacity="1" fill-rule="nonzero"/><path fill="#ffffff" d="M 240.375 243.726562 L 161.507812 243.726562 L 161.507812 235.394531 L 240.375 235.394531 L 240.375 243.726562 " fill-opacity="1" fill-rule="nonzero"/><path fill="#ff2c2c" d="M 137.09375 140.074219 L 115.738281 118.726562 L 121.632812 112.832031 L 142.984375 134.183594 L 137.09375 140.074219 " fill-opacity="1" fill-rule="nonzero"/><path fill="#ff2c2c" d="M 121.632812 140.074219 L 115.738281 134.183594 L 137.09375 112.832031 L 142.984375 118.726562 L 121.632812 140.074219 " fill-opacity="1" fill-rule="nonzero"/><path fill="#ff2c2c" d="M 137.09375 253.183594 L 115.738281 231.832031 L 121.632812 225.941406 L 142.984375 247.289062 L 137.09375 253.183594 " fill-opacity="1" fill-rule="nonzero"/><path fill="#ff2c2c" d="M 121.632812 253.183594 L 115.738281 247.289062 L 137.09375 225.941406 L 142.984375 231.832031 L 121.632812 253.183594 " fill-opacity="1" fill-rule="nonzero"/><g clip-path="url(#41d181fd26)"><path fill="#ffffff" d="M 288.292969 327.769531 L 161.507812 327.769531 L 161.507812 319.023438 L 279.542969 319.023438 L 279.542969 46.996094 L 161.507812 46.996094 L 161.507812 38.246094 L 288.292969 38.246094 L 288.292969 327.769531 " fill-opacity="1" fill-rule="nonzero"/></g><g clip-path="url(#f0ec718ba3)"><path fill="#ffffff" d="M 142.984375 327.769531 L 77.679688 327.769531 L 77.679688 38.246094 L 142.984375 38.246094 L 142.984375 46.996094 L 86.429688 46.996094 L 86.429688 319.023438 L 142.984375 319.023438 L 142.984375 327.769531 " fill-opacity="1" fill-rule="nonzero"/></g><path fill="#ffffff" d="M 66.429688 306.730469 L 57.679688 306.730469 L 57.679688 59.285156 L 66.429688 59.285156 L 66.429688 306.730469 " fill-opacity="1" fill-rule="nonzero"/><path fill="#ffffff" d="M 308.292969 306.730469 L 299.542969 306.730469 L 299.542969 59.285156 L 308.292969 59.285156 L 308.292969 306.730469 " fill-opacity="1" fill-rule="nonzero"/><g clip-path="url(#2876e81fee)"><path fill="#ffffff" d="M 328.292969 282.988281 L 319.542969 282.988281 L 319.542969 83.027344 L 328.292969 83.027344 L 328.292969 282.988281 " fill-opacity="1" fill-rule="nonzero"/></g><g clip-path="url(#08ce7e02e0)"><path fill="#ffffff" d="M 46.429688 282.988281 L 37.679688 282.988281 L 37.679688 83.027344 L 46.429688 83.027344 L 46.429688 282.988281 " fill-opacity="1" fill-rule="nonzero"/></g></svg>