<svg xmlns="http://www.w3.org/2000/svg" xmlns:xlink="http://www.w3.org/1999/xlink" width="500" zoomAndPan="magnify" viewBox="0 0 375 374.999991" height="500" preserveAspectRatio="xMidYMid meet" version="1.0"><defs><clipPath id="a9aa09cce4"><path d="M 7.617188 77.097656 L 363.867188 77.097656 L 363.867188 295 L 7.617188 295 Z M 7.617188 77.097656 " clip-rule="nonzero"/></clipPath></defs><path fill="#e7e7e6" d="M 257.003906 216.078125 C 256.402344 216.078125 255.773438 216.109375 255.171875 216.203125 C 247.535156 217.210938 242.140625 224.234375 243.148438 231.855469 C 244.097656 238.785156 250.058594 243.984375 257.035156 243.984375 C 257.632812 243.984375 258.265625 243.953125 258.863281 243.855469 C 266.5 242.847656 271.898438 235.792969 270.886719 228.171875 C 269.941406 221.273438 263.976562 216.078125 257.003906 216.078125 " fill-opacity="1" fill-rule="nonzero"/><path fill="#e7e7e6" d="M 276.15625 132.199219 C 269.941406 128.105469 261.703125 125.929688 252.363281 125.929688 C 249.617188 125.929688 246.777344 126.121094 243.96875 126.496094 C 234.628906 127.726562 225.574219 132.230469 219.105469 138.84375 C 212.574219 145.585938 209.386719 153.773438 210.394531 161.332031 C 211.152344 166.941406 215.378906 170.5625 221.15625 170.5625 C 221.785156 170.5625 222.417969 170.5 223.015625 170.40625 C 230.75 169.398438 232.421875 164.074219 234.03125 158.941406 C 235.859375 153.113281 237.597656 147.601562 247.566406 146.246094 C 248.578125 146.121094 249.585938 146.058594 250.535156 146.058594 C 257.726562 146.058594 262.175781 149.835938 263.0625 156.703125 C 263.976562 163.414062 258.675781 168.796875 253.027344 174.46875 C 246.683594 180.832031 239.519531 188.042969 240.878906 198.28125 C 241.226562 200.925781 242.425781 203.382812 244.160156 205.210938 C 246.179688 207.320312 248.828125 208.421875 251.796875 208.421875 C 252.332031 208.421875 252.898438 208.390625 253.46875 208.328125 C 261.546875 207.226562 262.652344 202.5625 263.722656 198.027344 C 264.132812 196.328125 264.542969 194.5625 265.363281 192.957031 C 266.46875 190.722656 269.277344 188.105469 272.527344 185.082031 C 280.289062 177.871094 290.894531 167.949219 288.9375 153.269531 C 287.707031 144.074219 283.414062 136.984375 276.15625 132.199219 " fill-opacity="1" fill-rule="nonzero"/><g clip-path="url(#a9aa09cce4)"><path fill="#e7e7e6" d="M 348.515625 258.09375 C 348.230469 258.441406 347.628906 259.070312 346.621094 259.195312 L 184.488281 280.804688 C 182.910156 280.992188 181.488281 279.890625 181.269531 278.347656 L 159.621094 116.511719 C 159.433594 114.9375 160.503906 113.519531 162.082031 113.300781 L 324.214844 91.691406 C 324.375 91.691406 324.46875 91.691406 324.59375 91.691406 C 326.015625 91.691406 327.246094 92.730469 327.433594 94.148438 L 349.082031 255.984375 C 349.207031 257.023438 348.765625 257.746094 348.515625 258.09375 Z M 148.453125 268.960938 C 148.292969 270.125 147.15625 271.007812 145.957031 270.820312 L 20.367188 252.707031 C 19.578125 252.613281 19.105469 252.109375 18.882812 251.855469 C 18.695312 251.574219 18.378906 251.007812 18.472656 250.21875 L 36.617188 124.859375 C 36.777344 123.757812 37.722656 122.9375 38.796875 122.9375 C 38.921875 122.9375 39.015625 122.96875 39.144531 122.96875 L 148.515625 138.75 L 157.539062 206.21875 Z M 362.902344 254.15625 L 341.257812 92.292969 C 340.152344 84.007812 333.019531 77.738281 324.59375 77.738281 C 323.867188 77.738281 323.113281 77.800781 322.386719 77.898438 L 160.253906 99.472656 C 151.039062 100.699219 144.570312 109.171875 145.800781 118.339844 L 147.03125 127.601562 L 40.6875 112.261719 C 40.058594 112.199219 39.425781 112.132812 38.796875 112.132812 C 32.359375 112.132812 26.835938 116.953125 25.890625 123.316406 L 7.746094 248.675781 C 7.273438 252.109375 8.125 255.542969 10.207031 258.3125 C 12.320312 261.117188 15.351562 262.914062 18.820312 263.417969 L 144.378906 281.527344 C 145.011719 281.621094 145.644531 281.652344 146.273438 281.652344 C 152.710938 281.652344 158.265625 276.867188 159.179688 270.503906 L 162.777344 245.527344 L 167.417969 280.171875 C 168.519531 288.488281 175.683594 294.757812 184.078125 294.757812 C 184.835938 294.757812 185.59375 294.695312 186.316406 294.597656 L 348.480469 272.992188 C 352.898438 272.425781 356.875 270.125 359.589844 266.566406 C 362.335938 263.007812 363.503906 258.597656 362.902344 254.15625 " fill-opacity="1" fill-rule="nonzero"/></g><path fill="#e7e7e6" d="M 119.546875 159.316406 C 114.5625 154.75 107.175781 151.570312 98.78125 150.371094 C 97.238281 150.152344 95.691406 150.027344 94.113281 150.027344 C 87.515625 150.027344 81.015625 151.980469 75.808594 155.476562 C 70.476562 159.097656 67.132812 164.011719 66.34375 169.300781 C 65.996094 171.820312 66.597656 174.058594 68.109375 175.789062 C 69.46875 177.335938 71.488281 178.40625 73.855469 178.75 C 74.453125 178.816406 75.023438 178.878906 75.558594 178.878906 C 80.324219 178.878906 82.4375 175.632812 84.488281 172.515625 C 86.792969 168.988281 88.96875 165.679688 94.710938 165.679688 C 95.53125 165.679688 96.382812 165.742188 97.269531 165.871094 C 104.117188 166.84375 107.523438 170.910156 106.640625 176.957031 C 105.914062 182.152344 100.800781 185.050781 95.375 188.074219 C 89.316406 191.507812 82.4375 195.382812 81.269531 203.320312 C 80.953125 205.523438 81.394531 207.824219 82.5 209.621094 C 83.414062 211.097656 85.214844 212.957031 88.558594 213.460938 C 89.253906 213.554688 89.914062 213.585938 90.515625 213.585938 C 95.21875 213.585938 96.828125 210.722656 98.371094 207.917969 C 99.035156 206.753906 99.699219 205.492188 100.644531 204.484375 C 101.96875 203.066406 104.621094 201.714844 107.679688 200.136719 C 115.003906 196.359375 125.039062 191.191406 126.679688 179.855469 C 127.84375 171.757812 125.382812 164.640625 119.546875 159.316406 " fill-opacity="1" fill-rule="nonzero"/><path fill="#e7e7e6" d="M 88.148438 219.667969 C 87.613281 219.605469 87.105469 219.574219 86.601562 219.574219 C 81.238281 219.574219 76.628906 223.574219 75.84375 228.863281 C 74.988281 234.753906 79.125 240.265625 85.023438 241.117188 C 85.53125 241.179688 86.066406 241.210938 86.570312 241.210938 C 91.933594 241.210938 96.574219 237.242188 97.332031 231.949219 C 98.183594 226.03125 94.050781 220.546875 88.148438 219.667969 " fill-opacity="1" fill-rule="nonzero"/></svg>