<svg xmlns="http://www.w3.org/2000/svg" xmlns:xlink="http://www.w3.org/1999/xlink" width="500" zoomAndPan="magnify" viewBox="0 0 375 374.999991" height="500" preserveAspectRatio="xMidYMid meet" version="1.0"><defs><clipPath id="862f102865"><path d="M 7.183594 318.191406 L 369.519531 318.191406 L 369.519531 319.738281 L 7.183594 319.738281 Z M 7.183594 318.191406 " clip-rule="nonzero"/></clipPath><clipPath id="6a39d8ce2b"><path d="M 40 23.492188 L 171 23.492188 L 171 52 L 40 52 Z M 40 23.492188 " clip-rule="nonzero"/></clipPath><clipPath id="6b6e36a211"><path d="M 357.207031 159.355469 L 375 159.355469 L 375 198.324219 L 357.207031 198.324219 Z M 357.207031 159.355469 " clip-rule="nonzero"/></clipPath></defs><g clip-path="url(#862f102865)"><path fill="#e4e0ff" d="M 368.589844 319.738281 L 7.921875 319.738281 C 7.515625 319.738281 7.183594 319.40625 7.183594 318.996094 C 7.183594 318.589844 7.515625 318.261719 7.921875 318.261719 L 368.589844 318.261719 C 368.996094 318.261719 369.328125 318.589844 369.328125 318.996094 C 369.328125 319.40625 368.996094 319.738281 368.589844 319.738281 " fill-opacity="1" fill-rule="nonzero"/></g><g clip-path="url(#6a39d8ce2b)"><path fill="#f2f0ff" d="M 40.339844 51.003906 L 170.535156 51.003906 L 123.464844 43.664062 C 123.464844 43.664062 123.203125 29.515625 107.730469 35.28125 C 107.730469 35.28125 106.46875 24.539062 94.511719 24.011719 C 82.558594 23.488281 83.34375 33.707031 83.34375 33.707031 C 83.34375 33.707031 68.132812 23.75 59.21875 33.445312 C 50.304688 43.140625 64.464844 45.761719 64.464844 45.761719 L 40.339844 51.003906 " fill-opacity="1" fill-rule="nonzero"/></g><path fill="#f2f0ff" d="M 367.632812 71.058594 L 300.746094 71.058594 L 324.929688 67.289062 C 324.929688 67.289062 325.0625 60.019531 333.011719 62.980469 C 333.011719 62.980469 333.660156 57.460938 339.800781 57.191406 C 345.945312 56.921875 345.539062 62.171875 345.539062 62.171875 C 345.539062 62.171875 353.351562 57.058594 357.929688 62.039062 C 362.511719 67.019531 355.238281 68.367188 355.238281 68.367188 L 367.632812 71.058594 " fill-opacity="1" fill-rule="nonzero"/><path fill="#ff96a9" d="M 159.683594 133.359375 C 161.070312 135.300781 160.238281 137.246094 159.125 138.910156 C 158.722656 139.316406 158.265625 139.65625 157.777344 139.941406 C 154.996094 139.871094 153.402344 138.679688 153.128906 138.46875 C 152.71875 138.152344 154.808594 134.050781 154.808594 134.050781 L 153.3125 133.558594 L 155.128906 130.019531 C 156.664062 131.117188 158.46875 131.945312 159.683594 133.359375 " fill-opacity="1" fill-rule="nonzero"/><path fill="#ed7e94" d="M 159.125 138.910156 C 160.238281 137.246094 161.070312 135.300781 159.683594 133.359375 C 158.46875 131.945312 156.664062 131.117188 155.128906 130.019531 L 155.203125 129.875 L 156.082031 128.171875 C 163.28125 124.429688 166.304688 130.691406 166.304688 130.691406 C 166.304688 130.691406 168.996094 136.398438 162.984375 138.875 C 161.207031 139.609375 159.660156 139.898438 158.34375 139.9375 C 158.152344 139.945312 157.960938 139.945312 157.777344 139.941406 C 158.265625 139.65625 158.722656 139.316406 159.125 138.910156 " fill-opacity="1" fill-rule="nonzero"/><path fill="#3f327a" d="M 160.578125 132.304688 C 160.578125 132.304688 150.355469 127.097656 147.078125 121.160156 C 147.078125 121.160156 168.316406 123.25 170.066406 130.011719 C 171.820312 136.773438 162.984375 138.875 162.984375 138.875 L 162.011719 134.324219 C 162.011719 134.324219 163.804688 134.027344 163.378906 132.636719 C 162.953125 131.242188 160.578125 132.304688 160.578125 132.304688 " fill-opacity="1" fill-rule="nonzero"/><path fill="#ed7e94" d="M 197.175781 77.292969 C 200.507812 77.847656 202.730469 75.90625 203.285156 72.574219 C 203.6875 69.765625 203.359375 66.8125 202.097656 64.242188 C 202.574219 64.742188 202.945312 65.332031 203.199219 65.976562 C 203.945312 67.875 205.453125 72.167969 205.203125 75.347656 C 204.878906 79.546875 200.535156 80.105469 200.535156 80.105469 C 200.535156 80.105469 200.585938 82.625 199.089844 82.902344 C 198.761719 82.964844 198.6875 85.285156 198.625 89.078125 C 198.410156 88.988281 198.195312 88.894531 197.984375 88.796875 C 197.089844 85.046875 196.957031 81.257812 197.175781 77.292969 " fill-opacity="1" fill-rule="nonzero"/><path fill="#ff96a9" d="M 192.992188 84.527344 C 193.5 59.378906 199.3125 61.769531 201.742188 63.894531 C 201.867188 64.003906 201.984375 64.121094 202.097656 64.242188 C 203.359375 66.8125 203.6875 69.765625 203.285156 72.574219 C 202.730469 75.90625 200.507812 77.847656 197.175781 77.292969 C 196.957031 81.257812 197.089844 85.046875 197.984375 88.796875 C 195.964844 87.863281 194.175781 86.351562 192.992188 84.527344 " fill-opacity="1" fill-rule="nonzero"/><path fill="#ed7e94" d="M 197.175781 77.292969 C 200.507812 77.847656 202.730469 75.90625 203.285156 72.574219 C 203.355469 72.082031 203.40625 71.582031 203.429688 71.085938 C 204.519531 72.425781 205.316406 73.914062 205.203125 75.347656 C 204.878906 79.546875 200.535156 80.105469 200.535156 80.105469 C 200.535156 80.105469 200.585938 82.625 199.089844 82.902344 C 198.761719 82.964844 198.6875 85.285156 198.625 89.078125 C 198.410156 88.988281 198.195312 88.894531 197.984375 88.796875 C 197.089844 85.046875 196.957031 81.257812 197.175781 77.292969 " fill-opacity="1" fill-rule="nonzero"/><path fill="#ff96a9" d="M 192.992188 84.527344 C 195.171875 65.65625 198.109375 66.484375 198.109375 66.484375 C 198.109375 66.484375 201.324219 68.507812 203.429688 71.085938 C 203.40625 71.582031 203.355469 72.082031 203.285156 72.574219 C 202.730469 75.90625 200.507812 77.847656 197.175781 77.292969 C 196.957031 81.257812 197.089844 85.046875 197.984375 88.796875 C 195.964844 87.863281 194.175781 86.351562 192.992188 84.527344 " fill-opacity="1" fill-rule="nonzero"/><path fill="#f2f0ff" d="M 192.632812 87.507812 C 192.757812 86.503906 192.878906 85.511719 192.992188 84.527344 C 194.300781 86.542969 196.347656 88.179688 198.625 89.078125 C 198.609375 90.136719 198.589844 91.316406 198.570312 92.589844 C 196.226562 91.375 194.144531 89.628906 192.632812 87.507812 " fill-opacity="1" fill-rule="nonzero"/><path fill="#f2f0ff" d="M 157.207031 205.980469 C 156.539062 205.746094 155.820312 205.488281 155.050781 205.199219 C 156.246094 202.800781 158.214844 200.597656 160.804688 200.378906 C 161.164062 200.550781 161.53125 200.71875 161.902344 200.882812 C 159.683594 201.90625 158.148438 203.789062 157.207031 205.980469 " fill-opacity="1" fill-rule="nonzero"/><path fill="#322666" d="M 153.246094 160.445312 C 154.585938 162.082031 155.925781 163.773438 157.195312 165.523438 C 155.53125 165.398438 154.554688 165.175781 154.554688 165.175781 C 154.554688 165.175781 146.738281 169.6875 141.382812 177.117188 C 144.113281 170.785156 148.003906 165.164062 153.246094 160.445312 " fill-opacity="1" fill-rule="nonzero"/><path fill="#322666" d="M 197.089844 118.890625 C 195.738281 130.433594 193.109375 142.203125 187.890625 149.878906 C 180.777344 160.339844 171.863281 164.015625 165.042969 165.15625 C 181.734375 155.503906 192.226562 137.597656 197.089844 118.890625 " fill-opacity="1" fill-rule="nonzero"/><path fill="#3f327a" d="M 163.621094 143.109375 C 163.621094 143.109375 182.664062 135.699219 189.011719 108.277344 C 190.605469 101.382812 191.773438 94.28125 192.632812 87.507812 C 194.144531 89.628906 196.226562 91.375 198.570312 92.589844 C 198.464844 99.421875 198.238281 109.074219 197.089844 118.890625 C 192.226562 137.597656 181.734375 155.503906 165.042969 165.15625 C 161.824219 165.691406 159.070312 165.667969 157.195312 165.523438 C 155.925781 163.773438 154.585938 162.082031 153.246094 160.445312 C 148.003906 165.164062 144.113281 170.785156 141.382812 177.117188 C 140.578125 178.234375 139.828125 179.414062 139.167969 180.660156 C 139.167969 180.660156 144.773438 192.8125 160.804688 200.378906 C 158.214844 200.597656 156.246094 202.800781 155.050781 205.199219 C 146.417969 201.976562 132.003906 195.433594 127.03125 186.257812 C 127.03125 186.257812 131.699219 152.011719 163.621094 143.109375 " fill-opacity="1" fill-rule="nonzero"/><path fill="#322666" d="M 196.757812 223.011719 C 196.757812 214.511719 195.144531 206.191406 192.925781 198.050781 C 193.148438 197.011719 193.378906 195.972656 193.613281 194.933594 C 194.375 195.835938 194.828125 196.425781 194.828125 196.425781 L 200.445312 219.242188 C 199.292969 220.539062 197.925781 221.675781 196.757812 223.011719 " fill-opacity="1" fill-rule="nonzero"/><path fill="#3f327a" d="M 186.488281 244.15625 C 187.601562 228.691406 189.667969 213.246094 192.925781 198.050781 C 195.144531 206.191406 196.757812 214.511719 196.757812 223.011719 C 197.925781 221.675781 199.292969 220.539062 200.445312 219.242188 L 225.246094 318.261719 C 225.246094 318.261719 200.328125 279.136719 186.488281 244.15625 " fill-opacity="1" fill-rule="nonzero"/><path fill="#322666" d="M 193.613281 194.933594 C 189.957031 211.128906 187.675781 227.632812 186.488281 244.15625 C 181.957031 232.699219 178.382812 220.925781 176.875 209.859375 C 171.609375 171.15625 188.800781 189.25 193.613281 194.933594 " fill-opacity="1" fill-rule="nonzero"/><path fill="#322666" d="M 180.789062 228.007812 C 173.769531 231.257812 166.226562 230.921875 158.734375 229.667969 C 158.785156 229.425781 158.835938 229.1875 158.890625 228.953125 C 161.121094 218.722656 164.460938 208.355469 169.316406 198.382812 C 169.316406 198.382812 171.957031 196.425781 176.0625 195.03125 C 177.902344 194.40625 180.039062 193.898438 182.359375 193.726562 C 185.554688 204.886719 183.285156 216.785156 180.789062 228.007812 " fill-opacity="1" fill-rule="nonzero"/><path fill="#3f327a" d="M 180.789062 228.007812 C 183.285156 216.785156 185.554688 204.886719 182.359375 193.726562 C 182.949219 193.683594 183.546875 193.65625 184.15625 193.660156 C 187.851562 193.6875 190.359375 194.226562 192.011719 194.820312 C 192.492188 196.460938 192.953125 198.109375 193.382812 199.769531 C 187.269531 214.109375 163.792969 278.628906 159.542969 318.261719 C 159.542969 318.261719 149.769531 271.773438 158.734375 229.667969 C 166.226562 230.921875 173.769531 231.257812 180.789062 228.007812 " fill-opacity="1" fill-rule="nonzero"/><path fill="#322666" d="M 194.828125 196.425781 C 194.828125 196.425781 194.304688 197.609375 193.382812 199.769531 C 192.953125 198.109375 192.492188 196.460938 192.011719 194.820312 C 194.113281 195.578125 194.828125 196.425781 194.828125 196.425781 " fill-opacity="1" fill-rule="nonzero"/><path fill="#281d59" d="M 196.644531 191.414062 C 196.796875 192.164062 196.925781 192.914062 197.039062 193.660156 C 197.039062 193.660156 191.828125 204.285156 172.957031 200.4375 L 172.371094 197.714844 C 181.085938 199.679688 191.277344 198.835938 196.644531 191.414062 " fill-opacity="1" fill-rule="nonzero"/><path fill="#f2f0ff" d="M 166.296875 141.757812 C 167.558594 140.980469 191.859375 167.265625 196.644531 191.414062 C 191.277344 198.835938 181.085938 199.679688 172.371094 197.714844 L 160.867188 143.964844 C 160.867188 143.964844 164.875 142.636719 166.296875 141.757812 " fill-opacity="1" fill-rule="nonzero"/><path fill="#ed7e94" d="M 159.722656 138.933594 C 159.722656 138.933594 159.371094 135.292969 162.734375 138.410156 C 162.734375 138.410156 163.015625 138.78125 163.421875 139.367188 C 162.597656 140.191406 161.617188 140.878906 160.542969 141.402344 C 160.0625 140.011719 159.722656 138.933594 159.722656 138.933594 " fill-opacity="1" fill-rule="nonzero"/><path fill="#d4d1e8" d="M 169.925781 153.613281 C 170.066406 153.976562 170.34375 154.210938 170.546875 154.136719 C 170.753906 154.058594 170.808594 153.699219 170.667969 153.332031 C 170.53125 152.96875 170.253906 152.734375 170.050781 152.8125 C 169.84375 152.886719 169.789062 153.246094 169.925781 153.613281 " fill-opacity="1" fill-rule="nonzero"/><path fill="#d4d1e8" d="M 179.558594 172.839844 C 179.695312 173.207031 179.972656 173.4375 180.175781 173.363281 C 180.382812 173.285156 180.4375 172.925781 180.300781 172.558594 C 180.164062 172.195312 179.882812 171.960938 179.679688 172.039062 C 179.476562 172.117188 179.417969 172.472656 179.558594 172.839844 " fill-opacity="1" fill-rule="nonzero"/><path fill="#d4d1e8" d="M 189.085938 195.984375 C 189.226562 196.347656 189.503906 196.582031 189.707031 196.503906 C 189.914062 196.429688 189.96875 196.070312 189.832031 195.703125 C 189.691406 195.339844 189.414062 195.105469 189.210938 195.183594 C 189.003906 195.257812 188.949219 195.617188 189.085938 195.984375 " fill-opacity="1" fill-rule="nonzero"/><path fill="#d4d1e8" d="M 174.507812 162.390625 C 174.644531 162.757812 174.921875 162.992188 175.125 162.914062 C 175.332031 162.835938 175.386719 162.476562 175.25 162.113281 C 175.113281 161.746094 174.835938 161.511719 174.628906 161.589844 C 174.421875 161.667969 174.367188 162.027344 174.507812 162.390625 " fill-opacity="1" fill-rule="nonzero"/><path fill="#d4d1e8" d="M 184.730469 184.398438 C 184.867188 184.765625 185.144531 185 185.347656 184.921875 C 185.554688 184.84375 185.609375 184.484375 185.472656 184.121094 C 185.335938 183.753906 185.058594 183.519531 184.851562 183.597656 C 184.644531 183.675781 184.59375 184.035156 184.730469 184.398438 " fill-opacity="1" fill-rule="nonzero"/><path fill="#ff96a9" d="M 163.421875 139.367188 C 163.421875 139.367188 163.421875 139.367188 163.421875 139.371094 C 164.4375 140.828125 166.96875 143.671875 166.441406 145.089844 C 165.617188 147.308594 165.238281 147.289062 162.734375 146.769531 C 161.527344 146.519531 161.316406 143.609375 160.699219 141.851562 C 160.644531 141.699219 160.59375 141.546875 160.542969 141.402344 C 161.617188 140.878906 162.597656 140.191406 163.421875 139.367188 " fill-opacity="1" fill-rule="nonzero"/><path fill="#db4a87" d="M 167.078125 149.058594 C 176.554688 159.066406 191.203125 180.160156 191.203125 180.160156 L 188.011719 194.007812 L 187.800781 193.875 C 183.273438 178.195312 175.503906 163.554688 167.289062 149.589844 C 167.152344 149.246094 167.078125 149.058594 167.078125 149.058594 " fill-opacity="1" fill-rule="nonzero"/><path fill="#e5649a" d="M 167.289062 149.589844 C 175.503906 163.554688 183.273438 178.195312 187.800781 193.875 L 177.761719 187.589844 C 179.070312 179.753906 168.890625 153.632812 167.289062 149.589844 " fill-opacity="1" fill-rule="nonzero"/><path fill="#3f327a" d="M 165.617188 142.125 C 165.617188 142.125 194.796875 179.222656 198.15625 219.585938 L 205.214844 211.257812 C 205.214844 211.257812 195.542969 161.820312 186.769531 148.386719 C 177.996094 134.953125 171.855469 137.835938 171.855469 137.835938 C 171.855469 137.835938 167.316406 141.238281 165.617188 142.125 " fill-opacity="1" fill-rule="nonzero"/><path fill="#322666" d="M 154.554688 165.175781 L 154.164062 161.574219 C 158.609375 167.101562 162.871094 173.242188 164.339844 180.160156 C 159.75 171.554688 154.554688 165.175781 154.554688 165.175781 " fill-opacity="1" fill-rule="nonzero"/><path fill="#3f327a" d="M 160.867188 143.964844 C 160.867188 143.964844 190.734375 198.246094 179.816406 225.109375 C 179.816406 225.109375 170.996094 229.449219 156.714844 225.949219 C 156.714844 225.949219 172.304688 198.105469 167.378906 186.492188 C 166.449219 184.292969 165.410156 182.167969 164.339844 180.160156 C 162.871094 173.242188 158.609375 167.101562 154.164062 161.574219 L 152.648438 147.65625 C 154.460938 146.527344 158.304688 144.5 160.867188 143.964844 " fill-opacity="1" fill-rule="nonzero"/><path fill="#ed7e94" d="M 172.734375 206.636719 C 172.105469 205.515625 171.28125 204.625 170.335938 203.875 C 170.945312 204.042969 171.5625 204.203125 172.191406 204.355469 C 176.484375 205.75 177.105469 209.691406 174.214844 213.214844 C 174.214844 213.214844 170.574219 217.132812 168.335938 216.574219 C 167.84375 216.453125 167.40625 216.078125 167.015625 215.570312 C 167.734375 215.484375 168.441406 215.304688 169.125 214.960938 C 172.179688 213.851562 174.679688 209.964844 172.734375 206.636719 " fill-opacity="1" fill-rule="nonzero"/><path fill="#ff96a9" d="M 162.945312 209.929688 C 161.753906 209.160156 161.824219 207.480469 161.824219 207.480469 C 161.824219 207.480469 160.015625 206.96875 157.207031 205.980469 C 158.148438 203.789062 159.683594 201.90625 161.902344 200.882812 C 164.457031 202.019531 167.261719 203.039062 170.335938 203.875 C 171.28125 204.625 172.105469 205.515625 172.734375 206.636719 C 174.679688 209.964844 172.179688 213.851562 169.125 214.960938 C 168.441406 215.304688 167.734375 215.484375 167.015625 215.570312 C 165.632812 213.75 164.90625 210.207031 164.90625 210.207031 C 164.90625 210.207031 164.132812 210.699219 162.945312 209.929688 " fill-opacity="1" fill-rule="nonzero"/><path fill="#322666" d="M 168.429688 140.3125 L 176.875 146.355469 L 175.882812 149.414062 L 182.21875 149.414062 L 190.519531 187.324219 L 190.515625 187.324219 C 180.792969 161.421875 165.617188 142.125 165.617188 142.125 C 166.273438 141.78125 167.351562 141.066406 168.429688 140.3125 " fill-opacity="1" fill-rule="nonzero"/><path fill="#322666" d="M 158.738281 144.613281 C 159.492188 144.328125 160.21875 144.101562 160.867188 143.964844 C 160.867188 143.964844 173.183594 166.351562 179.109375 189.488281 L 157.207031 158.554688 L 162.800781 153.011719 L 159.820312 152.6875 L 158.738281 144.613281 " fill-opacity="1" fill-rule="nonzero"/><path fill="#ed7e94" d="M 197.175781 77.292969 C 197.644531 77.371094 198.085938 77.394531 198.511719 77.378906 C 199.464844 79.46875 200.535156 80.105469 200.535156 80.105469 C 200.535156 80.105469 200.585938 82.625 199.089844 82.902344 C 198.761719 82.964844 198.6875 85.285156 198.625 89.078125 C 198.410156 88.988281 198.195312 88.894531 197.984375 88.796875 C 197.089844 85.046875 196.957031 81.257812 197.175781 77.292969 " fill-opacity="1" fill-rule="nonzero"/><path fill="#ff96a9" d="M 192.992188 84.527344 C 193.3125 81.78125 193.578125 79.109375 193.800781 76.539062 C 193.925781 75.125 194.035156 73.742188 194.136719 72.398438 C 194.9375 72.304688 196.96875 72.382812 197.785156 75.347656 C 198.003906 76.140625 198.253906 76.8125 198.511719 77.378906 C 198.085938 77.394531 197.644531 77.371094 197.175781 77.292969 C 196.957031 81.257812 197.089844 85.046875 197.984375 88.796875 C 195.964844 87.863281 194.175781 86.351562 192.992188 84.527344 " fill-opacity="1" fill-rule="nonzero"/><path fill="#322666" d="M 193.613281 191.703125 C 193.613281 192.378906 193.882812 192.929688 194.21875 192.929688 C 194.554688 192.929688 194.828125 192.378906 194.828125 191.703125 C 194.828125 191.027344 194.554688 190.480469 194.21875 190.480469 C 193.882812 190.480469 193.613281 191.027344 193.613281 191.703125 " fill-opacity="1" fill-rule="nonzero"/><path fill="#322666" d="M 177.644531 199.992188 C 177.671875 199.992188 177.695312 199.992188 177.722656 199.984375 L 180.171875 199.285156 C 180.320312 199.242188 180.40625 199.085938 180.367188 198.9375 C 180.324219 198.789062 180.164062 198.707031 180.019531 198.746094 L 177.570312 199.445312 C 177.417969 199.488281 177.335938 199.640625 177.375 199.792969 C 177.410156 199.914062 177.523438 199.992188 177.644531 199.992188 " fill-opacity="1" fill-rule="nonzero"/><path fill="#3f327a" d="M 160.867188 159.582031 C 160.9375 159.582031 161.003906 159.554688 161.058594 159.5 L 162.996094 157.636719 C 163.109375 157.527344 163.109375 157.351562 163.003906 157.242188 C 162.894531 157.128906 162.71875 157.125 162.609375 157.234375 L 160.671875 159.097656 C 160.558594 159.207031 160.554688 159.382812 160.664062 159.496094 C 160.71875 159.550781 160.792969 159.582031 160.867188 159.582031 " fill-opacity="1" fill-rule="nonzero"/><path fill="#322666" d="M 153.683594 203.792969 C 153.683594 204.128906 153.957031 204.402344 154.292969 204.402344 C 154.632812 204.402344 154.90625 204.128906 154.90625 203.792969 C 154.90625 203.453125 154.632812 203.179688 154.292969 203.179688 C 153.957031 203.179688 153.683594 203.453125 153.683594 203.792969 " fill-opacity="1" fill-rule="nonzero"/><path fill="#d4d1e8" d="M 156.132812 204.832031 C 156.132812 205.035156 156.296875 205.199219 156.5 205.199219 C 156.703125 205.199219 156.863281 205.035156 156.863281 204.832031 C 156.863281 204.632812 156.703125 204.46875 156.5 204.46875 C 156.296875 204.46875 156.132812 204.632812 156.132812 204.832031 " fill-opacity="1" fill-rule="nonzero"/><path fill="#d4d1e8" d="M 197.453125 90.382812 C 197.453125 90.585938 197.617188 90.75 197.820312 90.75 C 198.023438 90.75 198.1875 90.585938 198.1875 90.382812 C 198.1875 90.179688 198.023438 90.015625 197.820312 90.015625 C 197.617188 90.015625 197.453125 90.179688 197.453125 90.382812 " fill-opacity="1" fill-rule="nonzero"/><path fill="#322666" d="M 150.410156 202.429688 C 150.410156 202.765625 150.683594 203.039062 151.019531 203.039062 C 151.359375 203.039062 151.632812 202.765625 151.632812 202.429688 C 151.632812 202.089844 151.359375 201.816406 151.019531 201.816406 C 150.683594 201.816406 150.410156 202.089844 150.410156 202.429688 " fill-opacity="1" fill-rule="nonzero"/><path fill="#322666" d="M 152.035156 203.039062 C 152.035156 203.375 152.3125 203.652344 152.648438 203.652344 C 152.984375 203.652344 153.261719 203.375 153.261719 203.039062 C 153.261719 202.703125 152.984375 202.429688 152.648438 202.429688 C 152.3125 202.429688 152.035156 202.703125 152.035156 203.039062 " fill-opacity="1" fill-rule="nonzero"/><path fill="#322666" d="M 148.78125 201.65625 C 148.78125 201.996094 149.054688 202.269531 149.394531 202.269531 C 149.730469 202.269531 150.003906 201.996094 150.003906 201.65625 C 150.003906 201.320312 149.730469 201.046875 149.394531 201.046875 C 149.054688 201.046875 148.78125 201.320312 148.78125 201.65625 " fill-opacity="1" fill-rule="nonzero"/><path fill="#3f327a" d="M 159.574219 312.585938 L 163.46875 318.261719 L 134.308594 318.261719 Z M 159.574219 312.585938 " fill-opacity="1" fill-rule="nonzero"/><path fill="#3f327a" d="M 222.492188 313.324219 L 253.105469 318.261719 L 218.675781 318.261719 Z M 222.492188 313.324219 " fill-opacity="1" fill-rule="nonzero"/><path fill="#db4a87" d="M 165.757812 147.273438 L 168.394531 148.523438 L 168.394531 150.847656 L 165.757812 149.597656 L 165.757812 147.273438 " fill-opacity="1" fill-rule="nonzero"/><path fill="#f2f0ff" d="M 156.742188 136.320312 L 154.589844 134.980469 C 154.589844 134.980469 153.527344 136.597656 154.589844 137.382812 C 155.65625 138.171875 156.742188 136.320312 156.742188 136.320312 " fill-opacity="1" fill-rule="nonzero"/><path fill="#ffcc46" d="M 230.050781 87.992188 L 230.980469 87.8125 L 231.910156 87.636719 C 235.425781 106.769531 251.21875 105.53125 251.21875 105.53125 L 234.964844 108.636719 L 218.710938 111.746094 C 218.710938 111.746094 233.847656 107.070312 230.050781 87.992188 " fill-opacity="1" fill-rule="nonzero"/><path fill="#ffa42f" d="M 230.050781 87.992188 L 230.980469 87.8125 L 231.351562 87.742188 C 235.152344 106.820312 220.015625 111.496094 220.015625 111.496094 L 218.710938 111.746094 C 218.710938 111.746094 233.847656 107.070312 230.050781 87.992188 " fill-opacity="1" fill-rule="nonzero"/><path fill="#ffa42f" d="M 241.175781 73.734375 C 253.855469 70.566406 256.238281 66.484375 256.46875 66.03125 C 256.542969 65.886719 256.578125 65.726562 256.578125 65.566406 L 256.285156 51.246094 C 256.28125 50.957031 256.144531 50.683594 255.917969 50.5 C 255.695312 50.320312 255.398438 50.246094 255.117188 50.300781 L 241.160156 52.96875 L 241.53125 54.898438 L 254.339844 52.453125 L 254.601562 65.296875 C 254.011719 66.066406 251.039062 69.242188 240.695312 71.828125 L 241.175781 73.734375 " fill-opacity="1" fill-rule="nonzero"/><path fill="#ffcc46" d="M 255.441406 67.070312 C 255.515625 66.925781 255.550781 66.765625 255.546875 66.605469 L 255.257812 52.289062 C 255.25 52 255.117188 51.726562 254.890625 51.542969 C 254.664062 51.363281 254.371094 51.289062 254.085938 51.34375 L 241.316406 53.78125 L 241.160156 52.96875 L 255.117188 50.300781 C 255.398438 50.246094 255.695312 50.320312 255.917969 50.5 C 256.144531 50.683594 256.28125 50.957031 256.285156 51.246094 L 256.578125 65.566406 C 256.578125 65.726562 256.542969 65.886719 256.46875 66.03125 C 256.386719 66.195312 256.019531 66.835938 254.984375 67.738281 C 255.261719 67.394531 255.394531 67.160156 255.441406 67.070312 " fill-opacity="1" fill-rule="nonzero"/><path fill="#ffa42f" d="M 216.324219 78.558594 C 203.367188 80.289062 199.644531 77.378906 199.261719 77.039062 C 199.140625 76.933594 199.050781 76.796875 198.992188 76.644531 L 193.976562 63.230469 C 193.875 62.960938 193.898438 62.65625 194.039062 62.402344 C 194.183594 62.152344 194.429688 61.976562 194.714844 61.921875 L 208.667969 59.253906 L 209.039062 61.1875 L 196.230469 63.636719 L 200.730469 75.667969 C 201.5625 76.167969 205.496094 78.023438 216.0625 76.609375 L 216.324219 78.558594 " fill-opacity="1" fill-rule="nonzero"/><path fill="#ffcc46" d="M 229.972656 86.078125 L 231.277344 85.828125 C 239.894531 84.179688 245.542969 75.863281 243.894531 67.25 L 240.773438 50.929688 L 208.261719 57.140625 L 211.386719 73.464844 C 213.035156 82.078125 221.355469 87.726562 229.972656 86.078125 " fill-opacity="1" fill-rule="nonzero"/><path fill="#ffcc46" d="M 228.773438 89.960938 L 233.824219 88.992188 C 234.773438 88.8125 235.394531 87.898438 235.210938 86.949219 L 235.1875 86.804688 C 235.003906 85.855469 234.085938 85.234375 233.136719 85.417969 L 228.089844 86.378906 C 227.140625 86.5625 226.519531 87.480469 226.699219 88.425781 L 226.726562 88.570312 C 226.910156 89.519531 227.824219 90.140625 228.773438 89.960938 " fill-opacity="1" fill-rule="nonzero"/><path fill="#ffa42f" d="M 227.386719 86.625 C 227.320312 86.890625 227.304688 87.175781 227.359375 87.460938 C 227.558594 88.496094 228.535156 89.179688 229.539062 88.988281 L 234.527344 88.035156 C 234.796875 87.984375 234.976562 87.875 235.1875 87.71875 C 235.015625 88.410156 234.539062 88.964844 233.8125 89.101562 L 228.828125 90.054688 C 227.820312 90.246094 226.847656 89.566406 226.648438 88.53125 C 226.503906 87.773438 226.816406 87.042969 227.386719 86.625 " fill-opacity="1" fill-rule="nonzero"/><path fill="#ffa42f" d="M 210.246094 57.664062 L 213.039062 72.261719 C 214.757812 81.234375 223.539062 87.097656 232.65625 85.351562 C 234.664062 84.96875 236.332031 83.796875 237.988281 82.8125 C 235.855469 84.589844 233.433594 86.316406 230.5 86.878906 C 221.382812 88.621094 212.601562 82.757812 210.886719 73.789062 L 207.886719 58.117188 L 210.246094 57.664062 " fill-opacity="1" fill-rule="nonzero"/><path fill="#ffcc46" d="M 206.414062 59.054688 L 243.160156 52.03125 C 243.957031 51.878906 244.480469 51.109375 244.328125 50.308594 L 244.304688 50.191406 C 244.152344 49.394531 243.382812 48.871094 242.585938 49.027344 L 205.835938 56.050781 C 205.039062 56.203125 204.515625 56.96875 204.671875 57.765625 L 204.691406 57.886719 C 204.84375 58.683594 205.613281 59.203125 206.414062 59.054688 " fill-opacity="1" fill-rule="nonzero"/><path fill="#ffa42f" d="M 205.339844 56.261719 C 205.339844 56.371094 205.34375 56.484375 205.367188 56.597656 C 205.523438 57.425781 206.328125 57.972656 207.160156 57.8125 L 243.785156 50.8125 C 243.988281 50.773438 244.179688 50.695312 244.34375 50.585938 C 244.320312 51.289062 243.816406 51.902344 243.101562 52.042969 L 206.472656 59.042969 C 205.640625 59.199219 204.839844 58.65625 204.679688 57.824219 C 204.5625 57.203125 204.839844 56.59375 205.339844 56.261719 " fill-opacity="1" fill-rule="nonzero"/><path fill="#ffcc46" d="M 216.589844 112.148438 L 253.339844 105.125 C 254.136719 104.972656 254.660156 104.203125 254.507812 103.40625 L 254.484375 103.289062 C 254.332031 102.492188 253.5625 101.96875 252.761719 102.121094 L 216.015625 109.144531 C 215.21875 109.296875 214.695312 110.066406 214.847656 110.863281 L 214.871094 110.984375 C 215.023438 111.78125 215.792969 112.300781 216.589844 112.148438 " fill-opacity="1" fill-rule="nonzero"/><path fill="#ffa42f" d="M 215.800781 109.191406 C 215.964844 110.019531 216.765625 110.558594 217.597656 110.398438 L 254.359375 103.375 C 254.40625 103.363281 254.449219 103.351562 254.496094 103.339844 C 254.496094 103.34375 254.496094 103.34375 254.496094 103.347656 C 254.71875 104.414062 254.210938 104.996094 253.273438 105.140625 L 216.511719 112.164062 C 215.679688 112.324219 214.875 111.78125 214.714844 110.949219 C 214.566406 110.167969 215.046875 109.40625 215.800781 109.191406 " fill-opacity="1" fill-rule="nonzero"/><path fill="#ffebb5" d="M 237.382812 53.132812 C 237.382812 53.132812 241.980469 72.765625 237.363281 78.601562 L 232.59375 54.050781 L 237.382812 53.132812 " fill-opacity="1" fill-rule="nonzero"/><path fill="#ed7e94" d="M 193.980469 72.972656 C 193.828125 71.019531 194.742188 69.101562 195.890625 67.207031 C 196.152344 66.777344 196.679688 66.59375 197.152344 66.765625 C 198.894531 67.394531 202.832031 68.914062 202.453125 69.726562 C 201.964844 70.769531 198.84375 72.296875 197.453125 71.394531 C 197.453125 71.394531 200.6875 75.515625 196.898438 76.945312 C 193.496094 78.230469 193.980469 72.972656 193.980469 72.972656 " fill-opacity="1" fill-rule="nonzero"/><path fill="#ed7e94" d="M 331.640625 141.394531 L 339.867188 142.703125 L 339.769531 143.210938 C 337.527344 144.59375 334.886719 145.191406 332.230469 145.21875 C 332.253906 143.148438 331.640625 141.394531 331.640625 141.394531 " fill-opacity="1" fill-rule="nonzero"/><path fill="#ed7e94" d="M 335.933594 136.269531 C 333.957031 133.839844 330.824219 132.828125 328.28125 131.046875 L 329.613281 128.519531 C 329.613281 128.519531 341.65625 131.53125 343.445312 133.230469 C 345.234375 134.925781 339.867188 142.703125 339.867188 142.703125 C 336.566406 143.816406 333.671875 143.78125 331.476562 143.398438 C 332.457031 143.195312 333.414062 142.867188 334.324219 142.347656 C 336.289062 141.09375 337.542969 138.054688 335.933594 136.269531 " fill-opacity="1" fill-rule="nonzero"/><path fill="#ff96a9" d="M 327.898438 135.820312 L 326.183594 135.015625 L 328.28125 131.046875 C 330.824219 132.828125 333.957031 133.839844 335.933594 136.269531 C 337.542969 138.054688 336.289062 141.09375 334.324219 142.347656 C 333.414062 142.867188 332.457031 143.195312 331.476562 143.398438 C 328.734375 142.917969 327.078125 141.898438 327.078125 141.898438 L 327.898438 135.820312 " fill-opacity="1" fill-rule="nonzero"/><path fill="#322666" d="M 338.199219 135.195312 C 338.199219 135.195312 328.777344 133.40625 321.265625 122.917969 C 321.265625 122.917969 340.703125 127.089844 348.335938 134.71875 C 348.335938 134.71875 345.113281 141.75 339.867188 142.703125 L 339.867188 136.386719 C 339.867188 136.386719 342.492188 136.03125 341.417969 134.242188 C 340.34375 132.453125 338.199219 135.195312 338.199219 135.195312 " fill-opacity="1" fill-rule="nonzero"/><path fill="#ffffff" d="M 350.167969 193.027344 C 350.761719 192.625 351.464844 192.121094 352.238281 191.527344 C 354.113281 192.617188 355.882812 193.972656 357.308594 195.601562 C 356.527344 196.023438 355.734375 196.421875 354.925781 196.796875 C 353.636719 195.195312 352.011719 193.867188 350.167969 193.027344 " fill-opacity="1" fill-rule="nonzero"/><path fill="#f2f2f2" d="M 359.113281 198.152344 C 358.304688 198.605469 357.46875 199.023438 356.605469 199.398438 C 356.144531 198.480469 355.578125 197.605469 354.925781 196.796875 C 355.734375 196.421875 356.527344 196.023438 357.308594 195.601562 C 358 196.386719 358.613281 197.238281 359.113281 198.152344 " fill-opacity="1" fill-rule="nonzero"/><path fill="#322666" d="M 360.144531 176.667969 L 350.71875 167.851562 L 349.214844 167.761719 C 349.6875 166.597656 350.085938 165.414062 350.242188 164.15625 C 353.578125 168.402344 356.917969 172.390625 360.144531 176.667969 " fill-opacity="1" fill-rule="nonzero"/><path fill="#322666" d="M 315.894531 166.300781 C 315.808594 167.535156 315.851562 168.769531 315.917969 170.003906 C 311.476562 175.816406 302.863281 186.019531 295.859375 187.875 C 295.859375 187.875 288.964844 180.707031 283.480469 174.226562 C 287.621094 176.785156 292.441406 178.21875 296.578125 180.785156 C 304.808594 179.171875 311.066406 172.917969 315.894531 166.300781 " fill-opacity="1" fill-rule="nonzero"/><path fill="#3f327a" d="M 279.285156 158.078125 C 279.285156 158.078125 290.257812 170.234375 297.410156 174.527344 C 297.410156 174.527344 310.648438 159.03125 315.300781 153.550781 L 331.042969 149.257812 L 338.554688 149.316406 L 353.105469 154.265625 C 353.105469 154.265625 355.332031 156.3125 358.402344 159.402344 C 363.988281 165.980469 368.933594 173.144531 372.425781 180.960938 C 369.023438 187.195312 363.601562 192.191406 357.308594 195.601562 C 355.882812 193.972656 354.113281 192.617188 352.238281 191.527344 C 355.617188 188.925781 360.300781 184.535156 362.527344 178.894531 L 360.144531 176.667969 C 356.917969 172.390625 353.578125 168.402344 350.242188 164.15625 C 350.085938 165.414062 349.6875 166.597656 349.214844 167.761719 L 318.878906 165.945312 C 318.878906 165.945312 317.753906 167.601562 315.917969 170.003906 C 315.851562 168.769531 315.808594 167.535156 315.894531 166.300781 C 311.066406 172.917969 304.808594 179.171875 296.578125 180.785156 C 292.441406 178.21875 287.621094 176.785156 283.480469 174.226562 C 280.105469 170.238281 277.261719 166.507812 276.902344 164.871094 C 275.945312 160.582031 279.285156 158.078125 279.285156 158.078125 " fill-opacity="1" fill-rule="nonzero"/><g clip-path="url(#6b6e36a211)"><path fill="#322666" d="M 372.425781 180.960938 C 368.933594 173.144531 363.988281 165.980469 358.402344 159.402344 C 364.035156 165.070312 372.507812 174.242188 375.289062 180.722656 C 375.289062 180.722656 369.53125 192.316406 359.113281 198.152344 C 358.613281 197.238281 358 196.386719 357.308594 195.601562 C 363.601562 192.191406 369.023438 187.195312 372.425781 180.960938 " fill-opacity="1" fill-rule="nonzero"/></g><path fill="#3f327a" d="M 292.820312 246.574219 C 297.472656 228.875 317.6875 200.507812 317.6875 200.507812 C 317.6875 200.507812 318.8125 199.359375 320.347656 198.324219 C 319.113281 214.984375 311.164062 230.707031 302.300781 244.605469 C 303.375 249.96875 306.417969 254.4375 307.847656 259.800781 C 311.425781 273.925781 315.539062 286.976562 317.328125 301.097656 C 317.882812 305.242188 318.242188 309.332031 318.464844 313.429688 C 318.425781 313.964844 318.402344 314.25 318.402344 314.25 L 292.820312 246.574219 " fill-opacity="1" fill-rule="nonzero"/><path fill="#322666" d="M 307.847656 259.800781 C 306.417969 254.4375 303.375 249.96875 302.300781 244.605469 C 311.164062 230.707031 319.113281 214.984375 320.347656 198.324219 C 324.042969 195.835938 330.09375 193.996094 328.53125 210.28125 C 326.320312 233.34375 310.351562 247.824219 310.351562 247.824219 C 321.394531 266.4375 318.921875 307.15625 318.464844 313.429688 C 318.242188 309.332031 317.882812 305.242188 317.328125 301.097656 C 315.539062 286.976562 311.425781 273.925781 307.847656 259.800781 " fill-opacity="1" fill-rule="nonzero"/><path fill="#3f327a" d="M 317.6875 200.507812 C 318.039062 193.71875 324.929688 194.152344 331.015625 195.890625 C 331.753906 203.953125 333.480469 211.921875 337.363281 219.21875 C 337.523438 219.511719 337.695312 219.800781 337.867188 220.089844 C 337.984375 250.054688 337.394531 279.832031 333.429688 310.214844 C 333.265625 311.449219 333.007812 312.652344 332.703125 313.84375 C 331.894531 308.074219 322.757812 241.9375 324.554688 214.765625 C 324.554688 214.765625 317.046875 212.777344 317.6875 200.507812 " fill-opacity="1" fill-rule="nonzero"/><path fill="#322666" d="M 337.867188 220.089844 C 338.863281 221.726562 340.054688 223.292969 341.121094 225.121094 C 342.210938 226.84375 343.441406 228.339844 344.714844 229.765625 C 344.152344 246.78125 341.132812 273.226562 332.757812 314.25 C 332.757812 314.25 332.738281 314.109375 332.703125 313.84375 C 333.007812 312.652344 333.265625 311.449219 333.429688 310.214844 C 337.394531 279.832031 337.984375 250.054688 337.867188 220.089844 " fill-opacity="1" fill-rule="nonzero"/><path fill="#322666" d="M 337.363281 219.21875 C 333.480469 211.921875 331.753906 203.953125 331.015625 195.890625 C 335.933594 197.296875 340.320312 199.554688 340.320312 199.554688 C 340.320312 199.554688 345.597656 202.851562 344.714844 229.765625 C 343.441406 228.339844 342.210938 226.84375 341.121094 225.121094 C 339.867188 222.972656 338.4375 221.1875 337.363281 219.21875 " fill-opacity="1" fill-rule="nonzero"/><path fill="#322666" d="M 336.28125 199.21875 C 336.359375 200.078125 336.480469 200.71875 336.648438 201.105469 C 336.648438 201.105469 325.675781 207.777344 317.6875 200.507812 C 317.6875 200.507812 317.640625 199.824219 317.597656 198.613281 C 323.234375 202.152344 330.640625 202.769531 336.28125 199.21875 " fill-opacity="1" fill-rule="nonzero"/><path fill="#ffffff" d="M 317.597656 198.613281 C 317.324219 190.976562 317.066406 162.296875 327.816406 150.136719 L 331.042969 149.257812 L 338.554688 149.316406 L 340.320312 149.917969 C 340.320312 149.917969 335.382812 189.210938 336.28125 199.21875 C 330.640625 202.769531 323.234375 202.152344 317.597656 198.613281 " fill-opacity="1" fill-rule="nonzero"/><path fill="#e5649a" d="M 330.566406 158.257812 L 331.179688 160.730469 L 328.917969 163.261719 L 328.539062 160.285156 L 330.566406 158.257812 " fill-opacity="1" fill-rule="nonzero"/><path fill="#db4a87" d="M 329.710938 160.285156 C 329.710938 160.285156 328.167969 182.507812 331.640625 194.667969 L 323.292969 206.253906 L 323.179688 205.976562 C 323.652344 190.605469 325.023438 175.191406 329.597656 160.503906 C 329.636719 160.429688 329.671875 160.355469 329.710938 160.285156 " fill-opacity="1" fill-rule="nonzero"/><path fill="#e5649a" d="M 329.597656 160.503906 C 325.023438 175.191406 323.652344 190.605469 323.179688 205.976562 L 317.386719 191.816406 C 317.386719 191.816406 321.898438 175.167969 329.597656 160.503906 " fill-opacity="1" fill-rule="nonzero"/><path fill="#322666" d="M 341.65625 187.21875 C 342.550781 181.855469 345.414062 177.207031 347.382812 172.203125 C 348.277344 169.519531 349.886719 167.015625 350.242188 164.15625 C 350.550781 164.546875 350.855469 164.933594 351.164062 165.320312 L 350.71875 167.851562 C 350.71875 167.851562 342.015625 187.277344 343.085938 193 C 344.160156 198.71875 352.03125 208.96875 360.023438 213.261719 C 360.023438 213.261719 355.835938 222.414062 348.132812 227.847656 C 351.375 224.179688 353.417969 219.425781 355.789062 215.109375 C 345.773438 209.746094 340.226562 198.480469 341.65625 187.21875 " fill-opacity="1" fill-rule="nonzero"/><path fill="#f2f2f2" d="M 339.667969 155.332031 L 332.085938 164.382812 L 330.566406 158.257812 L 326.183594 162.636719 L 325.914062 152.894531 L 327.125 160.285156 L 331.042969 157.246094 L 332.53125 162.191406 L 339.667969 155.332031 " fill-opacity="1" fill-rule="nonzero"/><path fill="#3f327a" d="M 338.554688 149.316406 L 353.105469 154.265625 L 351.164062 165.320312 C 350.855469 164.933594 350.550781 164.546875 350.242188 164.15625 C 349.886719 167.015625 348.277344 169.519531 347.382812 172.203125 C 345.414062 177.207031 342.550781 181.855469 341.65625 187.21875 C 340.226562 198.480469 345.773438 209.746094 355.789062 215.109375 C 353.417969 219.425781 351.375 224.179688 348.132812 227.847656 C 347.921875 227.992188 347.710938 228.136719 347.5 228.277344 C 347.5 228.277344 321.503906 210.460938 338.554688 149.316406 " fill-opacity="1" fill-rule="nonzero"/><path fill="#322666" d="M 342.15625 210.90625 C 342.332031 210.90625 342.507812 210.84375 342.644531 210.714844 L 348.210938 205.546875 C 348.5 205.277344 348.519531 204.824219 348.25 204.535156 C 347.980469 204.246094 347.527344 204.230469 347.234375 204.5 L 341.671875 209.667969 C 341.382812 209.9375 341.363281 210.386719 341.632812 210.679688 C 341.773438 210.832031 341.964844 210.90625 342.15625 210.90625 " fill-opacity="1" fill-rule="nonzero"/><path fill="#322666" d="M 331.042969 149.257812 C 331.042969 149.257812 318.28125 161.535156 317.6875 200.507812 L 315.539062 203.902344 C 315.539062 203.902344 310.171875 171.308594 313.15625 164.515625 L 320.3125 161.316406 L 317.804688 159.03125 L 327.328125 150.273438 L 331.042969 149.257812 " fill-opacity="1" fill-rule="nonzero"/><path fill="#322666" d="M 332.246094 310.527344 L 326.867188 318.261719 L 362.289062 318.261719 Z M 332.246094 310.527344 " fill-opacity="1" fill-rule="nonzero"/><path fill="#322666" d="M 318.648438 310.527344 L 323.769531 318.261719 L 286.558594 318.261719 Z M 318.648438 310.527344 " fill-opacity="1" fill-rule="nonzero"/><path fill="#e8462c" d="M 290.34375 81.679688 L 317.445312 111.53125 L 302.015625 111.53125 L 302.015625 318.261719 L 278.671875 318.261719 L 278.671875 111.53125 L 263.183594 111.53125 L 290.34375 81.679688 " fill-opacity="1" fill-rule="nonzero"/><path fill="#ff96a9" d="M 278.210938 151.761719 C 278.566406 151.9375 278.957031 152.179688 279.371094 152.464844 C 282.542969 155.46875 285.621094 158.867188 286.023438 163.261719 C 284.234375 163.441406 282.445312 162.546875 281.371094 160.941406 C 281.910156 163.441406 283.160156 166.480469 280.835938 168.269531 C 279.273438 169.4375 277.335938 168.527344 275.777344 167.121094 C 268.34375 158.164062 278.210938 151.761719 278.210938 151.761719 " fill-opacity="1" fill-rule="nonzero"/><path fill="#ed7e94" d="M 280.835938 168.269531 C 283.160156 166.480469 281.910156 163.441406 281.371094 160.941406 C 282.445312 162.546875 284.234375 163.441406 286.023438 163.261719 C 285.621094 158.867188 282.542969 155.46875 279.371094 152.464844 C 283.984375 155.65625 291.730469 164.992188 289.539062 166.300781 C 287.15625 167.730469 282.503906 162.609375 282.503906 162.609375 C 284.515625 165.824219 282.824219 173.445312 278.6875 169.996094 C 277.507812 169.011719 276.550781 168.054688 275.777344 167.121094 C 277.335938 168.527344 279.273438 169.4375 280.835938 168.269531 " fill-opacity="1" fill-rule="nonzero"/><path fill="#ff96a9" d="M 339.769531 143.210938 L 338.554688 149.316406 L 331.042969 157.246094 L 331.042969 149.257812 C 331.9375 148.039062 332.214844 146.5625 332.230469 145.21875 C 334.886719 145.191406 337.527344 144.59375 339.769531 143.210938 " fill-opacity="1" fill-rule="nonzero"/><path fill="#ffffff" d="M 331.640625 139.902344 L 327.941406 138.59375 C 327.941406 138.59375 327.210938 140.976562 328.917969 141.632812 C 330.625 142.285156 331.640625 139.902344 331.640625 139.902344 " fill-opacity="1" fill-rule="nonzero"/><path fill="#ed7e94" d="M 342.371094 201.34375 C 343.085938 203.128906 344.339844 204.738281 345.949219 205.453125 C 348.453125 206.707031 352.929688 206.707031 354.539062 203.84375 C 355.609375 201.699219 353.820312 199.554688 352.210938 197.945312 C 353.128906 197.59375 354.03125 197.210938 354.925781 196.796875 C 355.578125 197.605469 356.144531 198.480469 356.605469 199.398438 C 356.085938 199.625 355.554688 199.835938 355.015625 200.03125 C 355.015625 200.03125 360.144531 205.035156 355.015625 207.777344 C 349.886719 210.519531 343.8125 204.203125 343.8125 204.203125 C 343.8125 204.203125 344.398438 205.683594 343.085938 206.136719 C 342.871094 206.210938 342.523438 205.972656 342.15625 205.523438 C 342.726562 204.292969 342.234375 202.714844 342.371094 201.34375 " fill-opacity="1" fill-rule="nonzero"/><path fill="#ff96a9" d="M 348.335938 194.191406 C 348.335938 194.191406 349.046875 193.789062 350.167969 193.027344 C 352.011719 193.867188 353.636719 195.195312 354.925781 196.796875 C 354.03125 197.210938 353.128906 197.59375 352.210938 197.945312 C 353.820312 199.554688 355.609375 201.699219 354.539062 203.84375 C 352.929688 206.707031 348.453125 206.707031 345.949219 205.453125 C 344.339844 204.738281 343.085938 203.128906 342.371094 201.34375 C 342.234375 202.714844 342.726562 204.292969 342.15625 205.523438 C 340.308594 203.246094 337.886719 195.484375 348.335938 194.191406 " fill-opacity="1" fill-rule="nonzero"/><path fill="#322666" d="M 338.554688 149.316406 L 340.972656 150.140625 L 343.207031 159.402344 L 338.4375 161.667969 L 344.8125 166.421875 C 344.8125 166.421875 333.914062 183.628906 333.609375 199.398438 C 331.867188 187.453125 332.464844 171.148438 338.554688 149.316406 " fill-opacity="1" fill-rule="nonzero"/><path fill="#322666" d="M 334.128906 200.320312 C 334.128906 200.8125 334.527344 201.207031 335.015625 201.207031 C 335.507812 201.207031 335.902344 200.8125 335.902344 200.320312 C 335.902344 199.832031 335.507812 199.433594 335.015625 199.433594 C 334.527344 199.433594 334.128906 199.832031 334.128906 200.320312 " fill-opacity="1" fill-rule="nonzero"/><path fill="#322666" d="M 335.015625 204.136719 C 335.015625 204.625 335.414062 205.023438 335.902344 205.023438 C 336.394531 205.023438 336.789062 204.625 336.789062 204.136719 C 336.789062 203.644531 336.394531 203.25 335.902344 203.25 C 335.414062 203.25 335.015625 203.644531 335.015625 204.136719 " fill-opacity="1" fill-rule="nonzero"/><path fill="#ffffff" d="M 356.480469 197.492188 C 356.480469 197.878906 356.792969 198.191406 357.179688 198.191406 C 357.5625 198.191406 357.875 197.878906 357.875 197.492188 C 357.875 197.109375 357.5625 196.796875 357.179688 196.796875 C 356.792969 196.796875 356.480469 197.109375 356.480469 197.492188 " fill-opacity="1" fill-rule="nonzero"/><path fill="#3f327a" d="M 359.023438 195.585938 C 359.023438 196.089844 359.433594 196.5 359.941406 196.5 C 360.445312 196.5 360.859375 196.089844 360.859375 195.585938 C 360.859375 195.078125 360.445312 194.667969 359.941406 194.667969 C 359.433594 194.667969 359.023438 195.078125 359.023438 195.585938 " fill-opacity="1" fill-rule="nonzero"/><path fill="#3f327a" d="M 361.199219 194.160156 C 361.199219 194.667969 361.609375 195.078125 362.117188 195.078125 C 362.625 195.078125 363.035156 194.667969 363.035156 194.160156 C 363.035156 193.65625 362.625 193.246094 362.117188 193.246094 C 361.609375 193.246094 361.199219 193.65625 361.199219 194.160156 " fill-opacity="1" fill-rule="nonzero"/><path fill="#3f327a" d="M 363.316406 192.730469 C 363.316406 193.238281 363.726562 193.648438 364.234375 193.648438 C 364.738281 193.648438 365.148438 193.238281 365.148438 192.730469 C 365.148438 192.226562 364.738281 191.816406 364.234375 191.816406 C 363.726562 191.816406 363.316406 192.226562 363.316406 192.730469 " fill-opacity="1" fill-rule="nonzero"/><path fill="#3f327a" d="M 314.527344 165.199219 C 314.550781 165.199219 314.578125 165.195312 314.601562 165.183594 L 317.285156 163.902344 C 317.375 163.859375 317.414062 163.75 317.371094 163.664062 C 317.328125 163.574219 317.222656 163.535156 317.132812 163.578125 L 314.449219 164.859375 C 314.359375 164.902344 314.324219 165.007812 314.363281 165.097656 C 314.394531 165.164062 314.460938 165.199219 314.527344 165.199219 " fill-opacity="1" fill-rule="nonzero"/><path fill="#de1e00" d="M 317.445312 111.53125 L 302.015625 111.53125 L 302.015625 318.261719 L 290.34375 318.261719 L 290.34375 81.679688 L 317.445312 111.53125 " fill-opacity="1" fill-rule="nonzero"/><path fill="#322666" d="M 45.296875 201.238281 C 45.296875 201.238281 45.472656 210.738281 46.332031 213.21875 C 46.332031 213.21875 46.964844 210.761719 48.75 209.851562 L 45.296875 201.238281 " fill-opacity="1" fill-rule="nonzero"/><path fill="#ed7e94" d="M 62.230469 137.746094 C 62.78125 135.890625 62.972656 134.625 62.972656 134.625 L 66.335938 135.992188 C 66.335938 135.992188 66.335938 136.574219 66.210938 137.652344 C 64.882812 137.855469 63.558594 137.867188 62.230469 137.746094 " fill-opacity="1" fill-rule="nonzero"/><path fill="#ff96a9" d="M 62.230469 137.746094 C 63.558594 137.867188 64.882812 137.855469 66.210938 137.652344 C 66.042969 139.074219 65.660156 141.359375 64.773438 144.335938 C 63.210938 149.5625 55.125 150.433594 58.613281 145.457031 C 60.476562 142.792969 61.59375 139.878906 62.230469 137.746094 " fill-opacity="1" fill-rule="nonzero"/><path fill="#ff96a9" d="M 58.113281 128.398438 L 56.617188 127.402344 L 58.5625 124.410156 C 61.078125 126.78125 65.136719 128.5 63.59375 132.507812 C 63.109375 133.644531 62.195312 134.570312 61.046875 135.21875 C 59.011719 134.613281 57.617188 133.878906 57.617188 133.878906 L 58.113281 128.398438 " fill-opacity="1" fill-rule="nonzero"/><path fill="#ed7e94" d="M 63.59375 132.507812 C 65.136719 128.5 61.078125 126.78125 58.5625 124.410156 L 59.609375 122.796875 C 65.464844 121.179688 71.691406 125.660156 72.8125 128.027344 C 73.933594 130.390625 66.335938 135.992188 66.335938 135.992188 C 64.421875 136.046875 62.558594 135.671875 61.046875 135.21875 C 62.195312 134.570312 63.109375 133.644531 63.59375 132.507812 " fill-opacity="1" fill-rule="nonzero"/><path fill="#3f327a" d="M 65.835938 128.152344 C 65.835938 128.152344 58.238281 125.414062 49.394531 112.214844 C 49.394531 112.214844 65.710938 117.445312 77.921875 129.394531 C 77.921875 129.394531 73.808594 134.5 66.335938 135.992188 L 66.957031 130.390625 C 66.957031 130.390625 70.320312 130.269531 69.199219 127.15625 C 68.082031 124.042969 65.835938 128.152344 65.835938 128.152344 " fill-opacity="1" fill-rule="nonzero"/><path fill="#ed7e94" d="M 111.140625 140.859375 C 111.105469 140.773438 111.066406 140.683594 111.023438 140.597656 C 112.980469 141.167969 114.804688 144.40625 115.597656 152.800781 C 115.597656 152.800781 115.640625 153.542969 115.613281 154.820312 C 115.238281 155.238281 114.746094 155.539062 114.203125 155.769531 C 114.601562 150.746094 113.75 145.671875 111.140625 140.859375 " fill-opacity="1" fill-rule="nonzero"/><path fill="#ff96a9" d="M 109.710938 156.785156 C 109.824219 155.738281 109.867188 154.644531 109.824219 153.511719 C 109.824219 153.511719 107.699219 153.613281 107.597656 152.195312 C 107.597656 152.195312 102.835938 151.496094 104.660156 146.480469 C 105.691406 143.644531 108.46875 139.859375 111.023438 140.597656 C 111.066406 140.683594 111.105469 140.773438 111.140625 140.859375 C 113.75 145.671875 114.601562 150.746094 114.203125 155.769531 C 113.523438 156.054688 112.765625 156.226562 112.050781 156.34375 C 111.320312 156.554688 110.515625 156.722656 109.710938 156.785156 " fill-opacity="1" fill-rule="nonzero"/><path fill="#eac7ed" d="M 115.613281 154.820312 C 115.597656 155.453125 115.566406 156.21875 115.503906 157.09375 C 115.011719 157.398438 114.496094 157.65625 113.960938 157.875 C 114.066406 157.175781 114.144531 156.472656 114.203125 155.769531 C 114.746094 155.539062 115.238281 155.238281 115.613281 154.820312 " fill-opacity="1" fill-rule="nonzero"/><path fill="#f6def8" d="M 109.710938 156.785156 C 110.515625 156.722656 111.320312 156.554688 112.050781 156.34375 C 112.765625 156.226562 113.523438 156.054688 114.203125 155.769531 C 114.144531 156.472656 114.066406 157.175781 113.960938 157.875 C 112.53125 158.464844 110.964844 158.753906 109.414062 158.726562 C 109.539062 158.097656 109.640625 157.453125 109.710938 156.785156 " fill-opacity="1" fill-rule="nonzero"/><path fill="#ed7e94" d="M 33.871094 111.894531 C 34.285156 114.542969 33.050781 117.859375 28.714844 119.914062 C 26.789062 120.824219 26.183594 119.101562 26.183594 119.101562 C 26.183594 119.101562 25.574219 120.316406 24.15625 119.914062 C 22.738281 119.507812 22.738281 119.507812 22.738281 119.507812 C 22.738281 119.507812 22.398438 120.515625 21.945312 122.175781 C 21.371094 121.71875 20.835938 121.226562 20.351562 120.695312 C 20.699219 119.402344 21.09375 118.128906 21.523438 116.875 C 26.03125 118.996094 31.699219 116.257812 33.871094 111.894531 " fill-opacity="1" fill-rule="nonzero"/><path fill="#ff96a9" d="M 28.613281 108.074219 C 31.078125 106.972656 33.429688 109.046875 33.871094 111.894531 C 31.699219 116.257812 26.03125 118.996094 21.523438 116.875 C 21.09375 118.128906 20.699219 119.402344 20.351562 120.695312 C 19.582031 119.851562 18.949219 118.917969 18.515625 117.886719 C 20.902344 113.597656 24.167969 110.058594 28.613281 108.074219 " fill-opacity="1" fill-rule="nonzero"/><path fill="#eac7ed" d="M 21.945312 122.175781 C 21.816406 122.632812 21.683594 123.144531 21.542969 123.695312 C 20.972656 123.339844 20.417969 122.960938 19.890625 122.558594 C 20.03125 121.933594 20.1875 121.3125 20.351562 120.695312 C 20.835938 121.226562 21.371094 121.71875 21.945312 122.175781 " fill-opacity="1" fill-rule="nonzero"/><path fill="#f6def8" d="M 17.390625 120.09375 C 17.742188 119.339844 18.117188 118.601562 18.515625 117.886719 C 18.949219 118.917969 19.582031 119.851562 20.351562 120.695312 C 20.1875 121.3125 20.03125 121.933594 19.890625 122.558594 C 18.9375 121.832031 18.078125 121.019531 17.390625 120.09375 " fill-opacity="1" fill-rule="nonzero"/><path fill="#322666" d="M 100.507812 183.058594 C 106.949219 176.433594 112.5625 167.328125 113.960938 157.875 C 114.496094 157.65625 115.011719 157.398438 115.503906 157.09375 C 114.996094 164.015625 112.472656 177.75 100.8125 186.398438 C 100.8125 186.398438 83.496094 180.933594 75.496094 167.476562 L 72.199219 165.585938 C 73.027344 163.8125 73.964844 162.132812 74.992188 160.59375 C 79.242188 171.523438 91.089844 176.683594 100.507812 183.058594 " fill-opacity="1" fill-rule="nonzero"/><path fill="#322666" d="M 19.726562 139.589844 C 18.277344 134.015625 18.601562 128.15625 19.890625 122.558594 C 20.417969 122.960938 20.972656 123.339844 21.542969 123.695312 C 20.519531 127.746094 19.28125 134.0625 19.726562 139.589844 " fill-opacity="1" fill-rule="nonzero"/><path fill="#3f327a" d="M 19.890625 122.558594 C 18.601562 128.15625 18.277344 134.015625 19.726562 139.589844 C 19.933594 142.160156 20.5 144.558594 21.625 146.480469 C 21.625 146.480469 32.867188 146.832031 50.585938 138.027344 L 63.09375 141.570312 C 69.523438 143.085938 77.117188 147.640625 77.117188 147.640625 C 77.117188 147.640625 85.117188 167.882812 98.28125 175.066406 C 98.28125 175.066406 107.339844 169.351562 109.414062 158.726562 C 110.964844 158.753906 112.53125 158.464844 113.960938 157.875 C 112.5625 167.328125 106.949219 176.433594 100.507812 183.058594 C 91.089844 176.683594 79.242188 171.523438 74.992188 160.59375 C 73.964844 162.132812 73.027344 163.8125 72.199219 165.585938 L 46.90625 151.09375 C 46.90625 151.09375 42.964844 153.25 36.746094 154.960938 C 29.242188 155.28125 21.738281 155.007812 14.234375 154.21875 C 13.234375 152.222656 12.597656 150.160156 12.183594 148.066406 C 12.265625 140.539062 13.191406 129.09375 17.390625 120.09375 C 18.078125 121.019531 18.9375 121.832031 19.890625 122.558594 " fill-opacity="1" fill-rule="nonzero"/><path fill="#322666" d="M 36.746094 154.960938 C 30.410156 156.703125 21.710938 157.980469 12.410156 156.039062 C 12.410156 156.039062 12.128906 152.839844 12.183594 148.066406 C 12.597656 150.160156 13.234375 152.222656 14.234375 154.21875 C 21.738281 155.007812 29.242188 155.28125 36.746094 154.960938 " fill-opacity="1" fill-rule="nonzero"/><path fill="#3f327a" d="M 58.585938 273.835938 C 55.589844 290.167969 47.464844 303.332031 39.464844 317.039062 C 58.070312 228.324219 45.675781 203.492188 45.675781 203.492188 C 46.335938 202.03125 47.324219 200.941406 48.527344 200.148438 C 56.382812 212.082031 58.71875 226.785156 59.496094 241.046875 C 60.105469 251.976562 60.410156 262.601562 58.585938 273.835938 " fill-opacity="1" fill-rule="nonzero"/><path fill="#322666" d="M 58.585938 273.835938 C 60.410156 262.601562 60.105469 251.976562 59.496094 241.046875 C 58.71875 226.785156 56.382812 212.082031 48.527344 200.148438 C 54.996094 195.871094 67.597656 200.0625 67.597656 200.0625 C 80.964844 273.9375 39.449219 317.117188 39.449219 317.117188 C 39.453125 317.089844 39.457031 317.066406 39.464844 317.039062 C 47.464844 303.332031 55.589844 290.167969 58.585938 273.835938 " fill-opacity="1" fill-rule="nonzero"/><path fill="#322666" d="M 59.800781 217.367188 C 58.460938 210.894531 58.761719 204.582031 59.015625 198.195312 C 62.34375 197.640625 65.539062 197.925781 67.597656 200.0625 C 67.597656 200.0625 73.234375 204.796875 80.082031 214.773438 C 73.757812 218.351562 66.585938 220.757812 59.800781 217.367188 " fill-opacity="1" fill-rule="nonzero"/><path fill="#3f327a" d="M 59.015625 198.195312 C 58.761719 204.582031 58.460938 210.894531 59.800781 217.367188 C 66.585938 220.757812 73.757812 218.351562 80.082031 214.773438 C 91.992188 232.132812 107.574219 265.355469 103.523438 317.117188 C 103.523438 317.117188 62.640625 214.207031 45.675781 203.492188 C 45.675781 203.492188 52.582031 199.273438 59.015625 198.195312 " fill-opacity="1" fill-rule="nonzero"/><path fill="#f6def8" d="M 45.3125 200.535156 C 44.746094 195.183594 43.933594 183.425781 46.132812 172.511719 C 49.09375 157.785156 58.6875 140.320312 58.6875 140.320312 C 61.648438 140.964844 64.386719 141.695312 66.585938 142.625 L 68.878906 144.484375 C 68.878906 144.484375 62.019531 174.949219 63.898438 185.582031 C 64.871094 191.09375 65.828125 194.777344 66.527344 197.050781 C 60.242188 201.953125 52.617188 202.347656 45.3125 200.535156 " fill-opacity="1" fill-rule="nonzero"/><path fill="#3f327a" d="M 66.527344 197.050781 C 67.175781 199.164062 67.597656 200.0625 67.597656 200.0625 C 67.597656 200.0625 55.753906 207.929688 45.675781 203.492188 C 45.675781 203.492188 45.507812 202.402344 45.3125 200.535156 C 52.617188 202.347656 60.242188 201.953125 66.527344 197.050781 " fill-opacity="1" fill-rule="nonzero"/><path fill="#db4a87" d="M 61.238281 145.863281 C 57.707031 164.199219 59.605469 178.660156 59.605469 178.660156 C 55.023438 181.492188 52.226562 186.625 51.875 187.292969 C 51.15625 173.054688 54.390625 158.429688 61.238281 145.863281 " fill-opacity="1" fill-rule="nonzero"/><path fill="#e5649a" d="M 46.871094 177.140625 C 51.863281 157.101562 61.320312 145.433594 61.320312 145.433594 C 61.292969 145.578125 61.265625 145.71875 61.238281 145.863281 C 54.390625 158.429688 51.15625 173.054688 51.875 187.292969 C 51.851562 187.34375 51.835938 187.367188 51.835938 187.367188 L 46.871094 177.140625 " fill-opacity="1" fill-rule="nonzero"/><path fill="#322666" d="M 74.992188 160.59375 C 75.617188 162.203125 76.414062 163.6875 77.335938 165.066406 C 76.855469 165.699219 76.253906 166.484375 75.496094 167.476562 C 72.5625 171.320312 69.535156 179.261719 68.945312 186.609375 C 67.328125 177.882812 70.222656 167.742188 74.992188 160.59375 " fill-opacity="1" fill-rule="nonzero"/><path fill="#3f327a" d="M 66.585938 142.625 L 69.160156 143.585938 L 72.1875 145.015625 L 79.242188 162.566406 C 79.242188 162.566406 79.242188 162.570312 77.335938 165.066406 C 76.414062 163.6875 75.617188 162.203125 74.992188 160.59375 C 70.222656 167.742188 67.328125 177.882812 68.945312 186.609375 C 68.78125 188.640625 68.804688 190.628906 69.066406 192.472656 C 70.28125 200.972656 85.925781 205.222656 85.925781 205.222656 C 74.992188 219.949219 63.09375 217.519531 63.09375 217.519531 C 50.894531 180.632812 66.585938 142.625 66.585938 142.625 " fill-opacity="1" fill-rule="nonzero"/><path fill="#3f327a" d="M 60.15625 140.734375 C 60.15625 140.734375 41.675781 166.058594 46.332031 213.21875 C 46.332031 213.21875 36.410156 174.917969 53.828125 140.734375 L 60.15625 140.734375 " fill-opacity="1" fill-rule="nonzero"/><path fill="#322666" d="M 56.875 139.808594 L 49.269531 145.210938 L 51.195312 149.664062 L 44.207031 151.992188 C 44.207031 151.992188 42.925781 172.320312 46.148438 185.582031 L 47.042969 178.1875 L 47.976562 172.800781 L 49.160156 167.441406 L 50.660156 161.9375 L 52.433594 156.582031 L 54.117188 152.261719 L 55.367188 149.414062 L 56.789062 146.480469 L 58.398438 143.527344 L 60.246094 140.675781 L 56.875 139.808594 " fill-opacity="1" fill-rule="nonzero"/><path fill="#3f327a" d="M 101.519531 312.148438 L 122.683594 318.261719 L 98.382812 318.261719 Z M 101.519531 312.148438 " fill-opacity="1" fill-rule="nonzero"/><path fill="#3f327a" d="M 43.519531 312.21875 L 47.953125 318.261719 L 21.625 318.261719 Z M 43.519531 312.21875 " fill-opacity="1" fill-rule="nonzero"/><path fill="#322666" d="M 70.25 144.101562 L 70.25 150.574219 L 66.585938 152.09375 L 71.941406 157.875 C 71.941406 157.875 60.855469 174.964844 58.453125 186.59375 C 58.570312 162.046875 66.585938 142.625 66.585938 142.625 L 69.160156 143.585938 L 70.25 144.101562 " fill-opacity="1" fill-rule="nonzero"/><path fill="#322666" d="M 59.496094 189.738281 C 59.496094 190.242188 59.90625 190.648438 60.410156 190.648438 C 60.914062 190.648438 61.320312 190.242188 61.320312 189.738281 C 61.320312 189.234375 60.914062 188.828125 60.410156 188.828125 C 59.90625 188.828125 59.496094 189.234375 59.496094 189.738281 " fill-opacity="1" fill-rule="nonzero"/><path fill="#322666" d="M 60.410156 196.214844 C 60.410156 196.71875 60.816406 197.125 61.320312 197.125 C 61.824219 197.125 62.230469 196.71875 62.230469 196.214844 C 62.230469 195.714844 61.824219 195.304688 61.320312 195.304688 C 60.816406 195.304688 60.410156 195.714844 60.410156 196.214844 " fill-opacity="1" fill-rule="nonzero"/><path fill="#322666" d="M 67.09375 202.4375 C 67.207031 202.4375 67.320312 202.398438 67.40625 202.3125 L 71.355469 198.554688 C 71.539062 198.378906 71.546875 198.09375 71.371094 197.910156 C 71.199219 197.726562 70.910156 197.722656 70.726562 197.894531 L 66.777344 201.652344 C 66.59375 201.828125 66.589844 202.117188 66.761719 202.296875 C 66.851562 202.390625 66.972656 202.4375 67.09375 202.4375 " fill-opacity="1" fill-rule="nonzero"/><path fill="#3f327a" d="M 47.023438 153.460938 C 47.039062 153.460938 47.054688 153.457031 47.070312 153.453125 L 49.476562 152.683594 C 49.554688 152.65625 49.597656 152.574219 49.574219 152.492188 C 49.546875 152.414062 49.460938 152.367188 49.382812 152.394531 L 46.976562 153.164062 C 46.898438 153.1875 46.851562 153.273438 46.878906 153.355469 C 46.898438 153.417969 46.960938 153.460938 47.023438 153.460938 " fill-opacity="1" fill-rule="nonzero"/><path fill="#e5649a" d="M 62.609375 143.023438 L 63.042969 145.226562 L 60.941406 146.324219 L 60.484375 144.464844 L 62.609375 143.023438 " fill-opacity="1" fill-rule="nonzero"/></svg>